<?xml version="1.0" encoding="utf-8"?>
<!-- Generator: Adobe Illustrator 22.0.1, SVG Export Plug-In . SVG Version: 6.00 Build 0)  -->
<svg version="1.1" id="Layer_1" xmlns="http://www.w3.org/2000/svg" xmlns:xlink="http://www.w3.org/1999/xlink" x="0px" y="0px"
	 viewBox="0 0 1280 315.1" style="enable-background:new 0 0 1280 315.1;" xml:space="preserve">
<style type="text/css">
	.st0{fill:#283D77;}
	.st1{fill:#141B33;}
</style>
<g id="Layer_3">
	<path class="st0" d="M1280,298.5V176.1c-9.1-1.1-18,0.3-21.9,1c-1.6,0.3-3.1,0.4-4.7,0.4c-12.6-0.5-67.4-4.1-97.4-27.9
		c-34-27-89,0-130-33c-39.7-31.9-298.5-22.7-315.2-22c-0.6,0-1.1,0-1.7,0c-10.6-0.5-120.9-4.6-174.2,22
		c-39.7,19.8-57.8,11.6-64.9,5.1c-3.7-3.3-8.5-5.1-13.5-5.1h-38.7c-1.2,0-2.5-0.1-3.7-0.3c-12-2.2-79.9-14.7-117.2-24.7
		c-34.2-9.2-75.4-18.4-88.1-21.2c-2.6-0.6-5.2-0.6-7.8-0.2c-14.8,2.5-67.9,11.9-96,21.3c-26.5,8.8-78.2,50-97.5,65.8
		C2.7,161.2,0,167,0,173.2v125.4h1280V298.5z"/>
	<path class="st1" d="M1280,186.4l-43,3.6l-73,18c0,0-168-23-205-39s-77,0-77,0l-68,3l-29.8-24.7c-15.8-13.1-35.4-20.7-55.9-21.6
		c-34.1-1.6-87.3-1.4-122.3,11.3c-55,20-45,3-79,3s-116,7-135,7s-149-19-173-19s-93,12-118,31C80.1,174.9,19.3,243.9,0,266.1v115.4
		h1280V186.4z"/>
</g>
</svg>
